# xmcd
# 
# Track frame offsets:
#     150
#     7900
#     14236
#     25249
#     41791
# 
# Disc length: 740
# 
# Revision: 0
# Processed by: cddbd v1.5.2PL0 Copyright (c) Steve Scherf et al.
# Submitted via: fre:ac v1.0.17
# 
DISCID=3702e205
DTITLE=Love Me Tenders - Jackhole EP
DYEAR=2012
DGENRE=Rock and Roll
TTITLE0=Rock n Roll Don't Pay The Rent
TTITLE1=Billy's On Crack
TTITLE2=Jackhole
TTITLE3=All Over You
TTITLE4=I Don't Do Love
EXTD=www.facebook.com/thelovemetenders
EXTT0=
EXTT1=
EXTT2=
EXTT3=
EXTT4=
PLAYORDER=
